<svg id="Layer_1" data-name="Layer 1" xmlns="http://www.w3.org/2000/svg" xmlns:xlink="http://www.w3.org/1999/xlink" width="109.35" height="59.844" viewBox="0 0 109.35 59.844">
  <defs>
    <linearGradient id="linear-gradient" x1="0.061" y1="0.343" x2="1.127" y2="0.658" gradientUnits="objectBoundingBox">
      <stop offset="0" stop-color="#009fe3"/>
      <stop offset="0.08" stop-color="#0399de"/>
      <stop offset="0.19" stop-color="#0e8bd3"/>
      <stop offset="0.3" stop-color="#2072bf"/>
      <stop offset="0.41" stop-color="#3a50a4"/>
      <stop offset="0.53" stop-color="#5a2583"/>
      <stop offset="0.71" stop-color="#453f94"/>
      <stop offset="0.88" stop-color="#38519f"/>
      <stop offset="1" stop-color="#3458a4"/>
    </linearGradient>
    <linearGradient id="linear-gradient-2" x1="0.063" y1="0.343" x2="1.133" y2="0.658" xlink:href="#linear-gradient"/>
    <linearGradient id="linear-gradient-3" x1="-0.128" y1="0.299" x2="1.167" y2="0.619" xlink:href="#linear-gradient"/>
    <linearGradient id="linear-gradient-4" x1="-0.137" y1="0.298" x2="1.178" y2="0.617" xlink:href="#linear-gradient"/>
    <linearGradient id="linear-gradient-5" x1="-0.142" y1="0.416" x2="0.952" y2="0.559" xlink:href="#linear-gradient"/>
    <linearGradient id="linear-gradient-6" x1="-0.156" y1="0.418" x2="0.951" y2="0.556" xlink:href="#linear-gradient"/>
  </defs>
  <path id="Path_1" data-name="Path 1" d="M43.952,74.246a1.535,1.535,0,0,1-1.717-1.716V63.077A25.007,25.007,0,0,1,34.423,70.9a21.243,21.243,0,0,1-11.637,3.346,22.191,22.191,0,0,1-8.852-1.79A23,23,0,0,1,1.79,60.311,22.191,22.191,0,0,1,0,51.459a22.538,22.538,0,0,1,1.79-8.9A22.873,22.873,0,0,1,13.934,30.367a22.668,22.668,0,0,1,17.659,0,23.538,23.538,0,0,1,7.3,4.848,23.22,23.22,0,0,1,4.941,7.2,21.715,21.715,0,0,1,1.838,8.855V72.532a1.535,1.535,0,0,1-1.717,1.717Zm-1.267-12.8V72.529c0,.876.391,1.267,1.267,1.267a1.1,1.1,0,0,0,1.267-1.267V51.273a21.259,21.259,0,0,0-1.8-8.672,22.539,22.539,0,0,0-12.006-11.82,22.247,22.247,0,0,0-17.306,0A22.406,22.406,0,0,0,2.2,42.735,22.057,22.057,0,0,0,.446,51.459,21.766,21.766,0,0,0,2.2,60.135a22.525,22.525,0,0,0,11.91,11.91A21.711,21.711,0,0,0,22.783,73.8a20.775,20.775,0,0,0,11.393-3.276,24.524,24.524,0,0,0,8.085-8.361l.417-.719Zm-19.9,9.821A19.389,19.389,0,0,1,15.1,69.706,19.763,19.763,0,0,1,4.537,59.143a19.767,19.767,0,0,1,0-15.375,20.044,20.044,0,0,1,4.245-6.317,20.763,20.763,0,0,1,6.314-4.29,19.237,19.237,0,0,1,15.381,0,20.352,20.352,0,0,1,10.6,10.6,19.237,19.237,0,0,1,0,15.381,20.724,20.724,0,0,1-4.29,6.314,20.116,20.116,0,0,1-6.317,4.245A19.412,19.412,0,0,1,22.786,71.262Zm0-39.252a18.456,18.456,0,0,0-7.508,1.566,20.284,20.284,0,0,0-6.179,4.2,19.621,19.621,0,0,0-4.149,6.176,19.308,19.308,0,0,0,0,15.022A19.3,19.3,0,0,0,15.275,69.295a19.308,19.308,0,0,0,15.022,0,19.584,19.584,0,0,0,6.176-4.149,20.284,20.284,0,0,0,4.2-6.179,18.783,18.783,0,0,0,0-15.015A19.9,19.9,0,0,0,30.294,33.575a18.467,18.467,0,0,0-7.508-1.566Zm11.842-7.367H10.947a1.535,1.535,0,0,1-1.717-1.717,1.723,1.723,0,0,1,.478-1.174,1.6,1.6,0,0,1,1.238-.542H34.629a1.578,1.578,0,0,1,1.81,1.717,1.578,1.578,0,0,1-1.81,1.717ZM10.947,21.659a1.153,1.153,0,0,0-.9.391,1.279,1.279,0,0,0-.363.876c0,.876.391,1.267,1.267,1.267H34.629c.927,0,1.36-.4,1.36-1.267s-.433-1.267-1.36-1.267H10.947Z" transform="translate(0 -14.405)" fill="url(#linear-gradient)"/>
  <g id="Group_1" data-name="Group 1" transform="translate(0.895 7.707)">
    <path id="Path_2" data-name="Path 2" d="M46.329,75.51c-.5,0-.594-.093-.594-.594V61.335L44.064,64.21A23.851,23.851,0,0,1,36.2,72.343,20.136,20.136,0,0,1,25.167,75.51a21.085,21.085,0,0,1-8.409-1.7A21.86,21.86,0,0,1,5.2,62.252a21.085,21.085,0,0,1-1.7-8.409,21.378,21.378,0,0,1,1.7-8.457,21.749,21.749,0,0,1,11.56-11.6,21.551,21.551,0,0,1,16.774,0A21.874,21.874,0,0,1,45.187,45.26a20.609,20.609,0,0,1,1.742,8.4V74.919c0,.5-.093.594-.594.594ZM25.167,33.271a19.558,19.558,0,0,0-7.96,1.662,21.4,21.4,0,0,0-6.52,4.428A20.67,20.67,0,0,0,6.3,45.889,20.444,20.444,0,0,0,6.3,61.8,20.411,20.411,0,0,0,17.216,72.712a20.436,20.436,0,0,0,15.9,0,20.778,20.778,0,0,0,6.529-4.386,21.347,21.347,0,0,0,4.428-6.52,19.9,19.9,0,0,0,0-15.923A20.994,20.994,0,0,0,33.13,34.936a19.58,19.58,0,0,0-7.96-1.662ZM13.324,25.907c-.5,0-.594-.093-.594-.594a.614.614,0,0,1,.189-.427.484.484,0,0,1,.4-.167H37.006c.658,0,.687.193.687.594s-.029.594-.687.594Z" transform="translate(-3.272 -24.495)" fill="#d4edfc"/>
    <path id="Path_3" data-name="Path 3" d="M45.847,75.259c-.629,0-.818-.192-.818-.818V61.69l-1.254,2.156a24.062,24.062,0,0,1-7.941,8.21,20.346,20.346,0,0,1-11.153,3.205,21.3,21.3,0,0,1-8.5-1.717A22.107,22.107,0,0,1,4.507,61.87a21.3,21.3,0,0,1-1.717-8.5,21.646,21.646,0,0,1,1.717-8.547A21.987,21.987,0,0,1,16.182,33.1a21.788,21.788,0,0,1,16.953,0A22.091,22.091,0,0,1,44.9,44.692a20.829,20.829,0,0,1,1.761,8.493V74.444c0,.629-.192.818-.818.818Zm-.369-15.23V74.441a.369.369,0,1,0,.738,0V53.182a20.383,20.383,0,0,0-1.723-8.31A21.635,21.635,0,0,0,32.959,33.514a21.341,21.341,0,0,0-16.6,0A21.539,21.539,0,0,0,4.92,45a21.168,21.168,0,0,0-1.681,8.371A20.806,20.806,0,0,0,4.92,61.687,21.65,21.65,0,0,0,16.362,73.132a20.859,20.859,0,0,0,8.319,1.678,19.947,19.947,0,0,0,10.912-3.131,23.609,23.609,0,0,0,7.793-8.056l2.092-3.593ZM24.684,74.072a20.281,20.281,0,0,1-8.04-1.63A20.658,20.658,0,0,1,5.613,61.411a20.647,20.647,0,0,1,0-16.081,20.885,20.885,0,0,1,4.434-6.6,21.6,21.6,0,0,1,6.587-4.476,20.128,20.128,0,0,1,16.106,0A21.242,21.242,0,0,1,43.8,45.321a20.128,20.128,0,0,1,0,16.106,21.639,21.639,0,0,1-4.476,6.587,20.936,20.936,0,0,1-6.6,4.434,20.281,20.281,0,0,1-8.04,1.63Zm0-41.049a19.343,19.343,0,0,0-7.87,1.643,21.218,21.218,0,0,0-6.452,4.383,20.476,20.476,0,0,0-4.338,6.459,20.226,20.226,0,0,0,0,15.728,20.182,20.182,0,0,0,10.8,10.8,20.225,20.225,0,0,0,15.728,0,20.512,20.512,0,0,0,6.459-4.338,21.184,21.184,0,0,0,4.383-6.449,19.675,19.675,0,0,0,0-15.741A20.788,20.788,0,0,0,32.555,34.669a19.354,19.354,0,0,0-7.87-1.643Zm11.842-7.367H12.842c-.629,0-.818-.193-.818-.818a.83.83,0,0,1,.247-.578.708.708,0,0,1,.571-.241H36.524c.77,0,.911.276.911.818s-.141.818-.911.818Zm-23.682-1.19a.267.267,0,0,0-.237.093.384.384,0,0,0-.132.276.329.329,0,0,0,.372.372H36.524c.465,0,.465-.029.465-.372s0-.369-.465-.369H12.842Z" transform="translate(-2.79 -24.02)" fill="url(#linear-gradient-2)"/>
  </g>
  <path id="Path_4" data-name="Path 4" d="M190.14,89.839a1.535,1.535,0,0,1-1.716-1.717V83.137a14.936,14.936,0,0,1-6.17,5.191,18.155,18.155,0,0,1-6.94,1.508,15.818,15.818,0,0,1-6.385-1.325,17.125,17.125,0,0,1-5.194-3.542A16.511,16.511,0,0,1,158.96,73.3V45.887a1.594,1.594,0,0,1,.542-1.238,1.723,1.723,0,0,1,1.174-.478,1.535,1.535,0,0,1,1.717,1.717V73.3a13.1,13.1,0,0,0,1.007,5.133,12.473,12.473,0,0,0,2.795,4.123,13.6,13.6,0,0,0,4.129,2.753,12.528,12.528,0,0,0,4.992,1.007,12.981,12.981,0,0,0,5.085-1.007,13.143,13.143,0,0,0,6.879-6.693,12.637,12.637,0,0,0,1.145-4.854V45.887a1.535,1.535,0,0,1,1.717-1.717,1.723,1.723,0,0,1,1.174.478,1.6,1.6,0,0,1,.542,1.238V88.122a1.611,1.611,0,0,1-.539,1.238,1.725,1.725,0,0,1-1.177.478Zm-1.267-8.124v6.407c0,.876.391,1.267,1.267,1.267a1.279,1.279,0,0,0,.876-.363,1.153,1.153,0,0,0,.391-.9V45.887a1.153,1.153,0,0,0-.391-.9,1.279,1.279,0,0,0-.876-.363,1.1,1.1,0,0,0-1.267,1.267V73.765a13.085,13.085,0,0,1-1.187,5.034,13.688,13.688,0,0,1-2.891,4.123,13.888,13.888,0,0,1-4.216,2.795,13.193,13.193,0,0,1-5.265,1.043,12.744,12.744,0,0,1-5.172-1.043,14.052,14.052,0,0,1-4.264-2.843,12.982,12.982,0,0,1-2.894-4.27,13.514,13.514,0,0,1-1.043-5.31V45.887a1.1,1.1,0,0,0-1.267-1.267,1.273,1.273,0,0,0-.876.363,1.153,1.153,0,0,0-.391.9V73.3a16.07,16.07,0,0,0,4.643,11.358,16.626,16.626,0,0,0,5.06,3.449,15.151,15.151,0,0,0,6.2,1.287,17.476,17.476,0,0,0,6.767-1.476,14.975,14.975,0,0,0,6.382-5.608l.407-.594Z" transform="translate(-107.959 -29.998)" fill="url(#linear-gradient-3)"/>
  <g id="Group_2" data-name="Group 2" transform="translate(51.903 15.07)">
    <path id="Path_5" data-name="Path 5" d="M192.517,91.1c-.5,0-.594-.093-.594-.594v-8.57l-1.636,2.374a14.327,14.327,0,0,1-6.086,5.368,17.073,17.073,0,0,1-6.51,1.425,14.679,14.679,0,0,1-5.929-1.229A15.961,15.961,0,0,1,166.9,86.56a15.385,15.385,0,0,1-4.444-10.88V48.264a.488.488,0,0,1,.167-.4.6.6,0,0,1,.427-.189c.5,0,.594.093.594.594V75.676a14.174,14.174,0,0,0,1.1,5.57,13.581,13.581,0,0,0,3.045,4.489,14.668,14.668,0,0,0,4.466,2.977,13.634,13.634,0,0,0,5.435,1.1,14.046,14.046,0,0,0,5.531-1.1,14.257,14.257,0,0,0,7.45-7.258,13.793,13.793,0,0,0,1.248-5.284V48.264c0-.5.1-.594.6-.594a.614.614,0,0,1,.427.189.487.487,0,0,1,.167.4V90.5a.483.483,0,0,1-.17.407.6.6,0,0,1-.427.189Z" transform="translate(-162.239 -47.445)" fill="#d4edfc"/>
    <path id="Path_6" data-name="Path 6" d="M192.048,90.845c-.629,0-.818-.193-.818-.818V82.176L190,83.957a14.578,14.578,0,0,1-6.183,5.448,17.265,17.265,0,0,1-6.6,1.441,14.883,14.883,0,0,1-6.019-1.248,16.3,16.3,0,0,1-4.925-3.356A15.615,15.615,0,0,1,161.77,75.2V47.788a.7.7,0,0,1,.244-.571.82.82,0,0,1,.577-.247c.629,0,.818.192.818.818V75.2a13.965,13.965,0,0,0,1.078,5.483,13.428,13.428,0,0,0,2.994,4.415,14.444,14.444,0,0,0,4.4,2.933,13.38,13.38,0,0,0,5.348,1.081,13.82,13.82,0,0,0,5.442-1.081,14.327,14.327,0,0,0,4.351-2.888A14.128,14.128,0,0,0,190,80.886a13.521,13.521,0,0,0,1.226-5.2v-27.9c0-.629.193-.818.818-.818a.825.825,0,0,1,.577.247.709.709,0,0,1,.241.571V90.024a.713.713,0,0,1-.244.574A.819.819,0,0,1,192.048,90.845Zm-.369-10.11v9.292a.328.328,0,0,0,.369.372.38.38,0,0,0,.276-.132.263.263,0,0,0,.1-.241V47.788a.27.27,0,0,0-.093-.237.384.384,0,0,0-.276-.132.326.326,0,0,0-.369.369V75.7a13.982,13.982,0,0,1-1.267,5.377,14.484,14.484,0,0,1-7.569,7.367,14.083,14.083,0,0,1-5.618,1.117,13.635,13.635,0,0,1-5.525-1.117,14.973,14.973,0,0,1-4.534-3.022,13.807,13.807,0,0,1-3.093-4.562,14.386,14.386,0,0,1-1.113-5.66V47.788a.326.326,0,0,0-.369-.369.38.38,0,0,0-.276.132.266.266,0,0,0-.093.237V75.2a15.175,15.175,0,0,0,4.379,10.723,15.8,15.8,0,0,0,4.79,3.263,14.261,14.261,0,0,0,5.836,1.21,16.617,16.617,0,0,0,6.423-1.405,14.131,14.131,0,0,0,5.987-5.287l2.044-2.968Z" transform="translate(-161.77 -46.97)" fill="url(#linear-gradient-4)"/>
  </g>
  <path id="Path_7" data-name="Path 7" d="M281.093,59.841a1.535,1.535,0,0,1-1.716-1.717V17.6H271.4a1.535,1.535,0,0,1-1.717-1.717,1.535,1.535,0,0,1,1.717-1.717h7.979V1.717a1.716,1.716,0,1,1,3.433,0V14.172h7.979a1.535,1.535,0,0,1,1.717,1.717,1.535,1.535,0,0,1-1.717,1.717h-7.979V58.124a1.535,1.535,0,0,1-1.716,1.717Zm-9.7-45.22a1.1,1.1,0,0,0-1.267,1.267,1.1,1.1,0,0,0,1.267,1.267h8.429V58.124c0,.876.391,1.267,1.267,1.267a1.1,1.1,0,0,0,1.267-1.267V17.156h8.429a1.1,1.1,0,0,0,1.267-1.267,1.1,1.1,0,0,0-1.267-1.267H282.36V1.717a1.267,1.267,0,0,0-2.535,0v12.9Z" transform="translate(-183.155 0)" fill="url(#linear-gradient-5)"/>
  <g id="Group_3" data-name="Group 3" transform="translate(87.424 0.898)">
    <path id="Path_8" data-name="Path 8" d="M283.47,61.1c-.5,0-.594-.093-.594-.594V18.859h-9.1c-.5,0-.594-.093-.594-.594s.093-.594.594-.594h9.1V4.094c0-.5.093-.594.594-.594s.594.093.594.594V17.672h9.1c.5,0,.594.093.594.594s-.093.594-.594.594h-9.1V60.5c0,.5-.093.594-.594.594Z" transform="translate(-272.956 -3.275)" fill="#d4edfc"/>
    <path id="Path_9" data-name="Path 9" d="M282.994,60.847c-.629,0-.818-.192-.818-.818V18.608H273.3c-.629,0-.818-.193-.818-.818s.193-.818.818-.818h8.878V3.618c0-.629.193-.818.818-.818s.818.193.818.818V16.972h8.878c.629,0,.818.192.818.818s-.193.818-.818.818h-8.878V60.026c0,.629-.192.818-.818.818Zm-9.7-43.426a.371.371,0,0,0,0,.741h9.327V60.026a.371.371,0,1,0,.741,0V18.162h9.327a.371.371,0,1,0,0-.741h-9.327V3.618a.371.371,0,0,0-.741,0v13.8Z" transform="translate(-272.48 -2.8)" fill="url(#linear-gradient-6)"/>
  </g>
</svg>
